<svg xmlns="http://www.w3.org/2000/svg" viewBox="0 0 556.5 347.42"><defs><style>.cls-1,.cls-17,.cls-22,.cls-25,.cls-26,.cls-27,.cls-28,.cls-29,.cls-3,.cls-6,.cls-7,.cls-8{fill:none}.cls-1{stroke:#3e4651;stroke-width:1.71px}.cls-1,.cls-16,.cls-17,.cls-20,.cls-21,.cls-22,.cls-25,.cls-26,.cls-27,.cls-28,.cls-29,.cls-3,.cls-6,.cls-7,.cls-8{stroke-miterlimit:10}.cls-2{fill:#ffab78}.cls-3,.cls-7{stroke:#c7c7c7}.cls-3,.cls-6,.cls-7{stroke-width:3px}.cls-4{fill:#d0021b}.cls-5{fill:#d4d4d4}.cls-6{stroke:#d4d4d4}.cls-17,.cls-20,.cls-21,.cls-25,.cls-26,.cls-27,.cls-28,.cls-29,.cls-6,.cls-8{stroke-linecap:round}.cls-7{stroke-linecap:square}.cls-8{stroke:#ffab78;stroke-width:4px}.cls-9{fill:#48525e}.cls-10,.cls-20,.cls-21{fill:#c7c7c7}.cls-11{fill:#899cb3}.cls-12{fill:#69778a}.cls-13{fill:#3e4651}.cls-14{fill:#b8959b}.cls-15{fill:#836d6f}.cls-16{fill:#fff;stroke:#899cb3}.cls-16,.cls-20,.cls-21{stroke-width:2px}.cls-17{stroke:#69778a;stroke-width:5px}.cls-18{fill:#4589b0}.cls-19{fill:#1d628b}.cls-20,.cls-25,.cls-26{stroke:#000}.cls-21{stroke:#1e1e1e}.cls-22{stroke:#a6a6a6}.cls-23{fill:#e1b493}.cls-24,.cls-26{opacity:.29}.cls-25,.cls-26{stroke-width:2.75px}.cls-25{stroke-dasharray:0 9.05}.cls-26{stroke-dasharray:0 12}.cls-27,.cls-28{stroke:#0c0c0c}.cls-27,.cls-28,.cls-29{stroke-dasharray:0 3.61;stroke-width:2.2px}.cls-29{stroke:#b8cbd6}.cls-30{fill:#b8cbd6}.cls-31{fill:#73b1d6}</style></defs><title>Asset 3sparrow</title><g id="Layer_2" data-name="Layer 2"><g id="Layer_1-2" data-name="Layer 1"><path class="cls-1" d="M267.61 200.15s2.3-1.69 4-.48c2.15 1.56-.64 8.09-3.53 6.48s-.47-6-.47-6z"/><path class="cls-2" d="M508.42 260.12c2.13-9.15 15.08-58 15.08-58s4.51-18.81 5.4-23.24 1.63-8.89 2.12-13.39a78.83 78.83 0 0 0 .4-13.78.41.41 0 0 1 .38-.44c.16 0 6-1.27 6.84 5.7.78 4 0 11.17 0 11.17-2.45 15-12.62 36-16.42 58.16 0 0-2.87 16.73-11.58 31.92-.35.61-1.45 2.53-2 2.35a.5.5 0 0 1-.22-.45z"/><path class="cls-3" d="M484 267.6v51.5m21.31 11.75v-4.44a7.31 7.31 0 0 0-7.31-7.31h-28a7.31 7.31 0 0 0-7.31 7.31v4.44M484 319.1v11.75"/><circle class="cls-4" cx="462.52" cy="330.85" r="3.24"/><circle class="cls-4" cx="505.05" cy="331.15" r="3.24"/><circle class="cls-4" cx="483.78" cy="330.96" r="3.24"/><rect class="cls-2" x="459.19" y="261.23" width="49.61" height="7.13" rx="3.56" ry="3.56"/><path class="cls-5" transform="rotate(-8.1 329.411 182.244)" d="M336.73 148.27h5.11v76.19h-5.11z"/><path class="cls-6" d="M339.28 187.76h-15.77v41h8.86"/><path class="cls-3" d="M309.89 231.51l20.74 13.82"/><path class="cls-7" d="M351.36 231.51l-20.73 13.82v87.33"/><path class="cls-3" d="M230.28 231.51l20.74 13.82"/><path class="cls-7" d="M271.75 231.51l-20.73 13.82v87.33"/><path class="cls-8" d="M142.5 231.51h296.64"/><path class="cls-9" d="M388.45 229.44s18.69-15.92 22.9 0z"/><path class="cls-10" d="M446.67 220.22c-5 .3-9.19.41-14.37.55-4.31.12-9.61.5-14.16.65h-.28l-2.86.13h-1.47a6 6 0 0 0-.87.16 3.75 3.75 0 0 0-2.45 2.77c-.63 1.73-3.52 3.27-5.27 3.89-.85.3-1.22.43-2 .65-1.07-.32-1.91-.77-.83-1.87.2-.2 1-.51 1.32-.77 2.29-1.68 1-3.28-1-4.57a7 7 0 0 0-1.09-.29 20.86 20.86 0 0 0-3.42 2.07 37 37 0 0 0-6.51 3.59 1.35 1.35 0 0 1 .13-1.38c2.75-4.28 7.31-6.81 10.5-10.82 14.38.37 27.74-2.61 41.53-6.39 1.97 3.73 2.43 7.57 3.1 11.63z"/><path class="cls-11" d="M486.69 197.14a159.03 159.03 0 0 1-3.68 8.74 22.21 22.21 0 0 1-17.55 12.86c-7.07.85-14.17 2-21.27 2.5a37.32 37.32 0 0 0-2-13c6.39-2 11.36-2.12 17.86-5.14 1.73-.8 3.83-2 4.82-7.14s1.62-21.29 14.68-19.41c14.59 3.9 10.32 12.36 7.14 20.59z"/><path class="cls-10" d="M448.08 156.27s3 10.62 15.59 9.27l2.81-.11s-1.75 13.8-4 16.09c0 0-19.66-1.12-25.16-12.34-.05-.01 1.3-13.97 10.76-12.91z"/><path class="cls-12" d="M462.34 166.52c-.41 3.32-1.86 12.9-5.12 16.16 0 0 19.72 19.44 13.48 54.49 0 0 14 4.21 28.38 2.84a8 8 0 0 1 7.34 5s14.69-30.66 5.57-54.78c0 0-6.73-17.67-19.54-21.62-14.28-4.4-22.62-3.37-28.83-3.23a1.32 1.32 0 0 0-1.28 1.14z"/><path class="cls-5" d="M462.14 208.54c-13.83 3.74-27 6.94-41.42 6-3.07 3.78-6.19 7.42-9.55 10.95a1.27 1.27 0 0 0 1.55 2h.06c2.1-1.26 5.24-4.36 7.21-6.35a4 4 0 0 1 1 .25c-.26 2.21.47 4.25.2 6.46h7.31a25.22 25.22 0 0 0 2.62-6.56c6.36-.12 13.74-.66 19.85-.72 5.29-.06 9.18-.13 14.2-.39-.62-4.09-.84-8.1-3.03-11.64z"/><path class="cls-11" d="M505.38 196.6a159.03 159.03 0 0 1-3.68 8.74 22.21 22.21 0 0 1-17.55 12.86c-7.07.85-14.17 2-21.27 2.5a37.32 37.32 0 0 0-2-13c6.39-2 11.36-2.12 17.86-5.14 1.73-.8 3.83-2 4.82-7.14s1.62-21.29 14.68-19.41c14.59 3.9 10.33 12.37 7.14 20.59z"/><path class="cls-13" d="M438.77 229.44h-37a1.15 1.15 0 0 1-1.21-1.07 1.15 1.15 0 0 1 1.21-1.07h37a1.15 1.15 0 0 1 1.21 1.07 1.15 1.15 0 0 1-1.21 1.07z"/><path class="cls-5" d="M366.49 322.83l-9.92 7.34-8.39 1.52-.93 2.68h37.55l5.13-13.41h-20.06l-3.38 1.87zm47.8-27.83l-1.06 15.16s-2.88 14.4-8.49 17.13l3.33 2s15.76-20 20.91-21.22v-3s-6.47-10.37-2.75-14.09z"/><path class="cls-14" d="M411.4 296.55l19.82 1.26 1.92-33.41s-23.54 16.37-21.74 32.15z"/><path class="cls-15" d="M463.19 264.4l-30.73 4.19s-35 44.44-35.89 52.31v2.8l-30.09-.87 22.74-28.16 7.17-15.57 15.45-21.81 4.14-4.17 13.29-.7 17.49 2.36 14.61 6.56 5.12-.47 4.77 1.63z"/><path class="cls-14" d="M508.32 240.67l-7.76 18.8a5.15 5.15 0 0 1-4.64 3.18l-31.35.71s-30.79-9.69-44.32-9.69c0 0-6.76 2-8.4 3.62l-2.57-17.49s12.13-4.76 23.09-5.93 34.52 1 34.52 1l8.63-.93z"/><path class="cls-5" d="M446.15 141.41h-13.67l-6.83 3.5-1.21 6.54L427 156l-6.19 5.39v1.33h5.33l-.54 5.29-3.54 5.35 2.43 3s17.31-4.19 19.65-10.1 8.51-16.35 2.01-24.85z"/><path d="M431.19 145.82s-12.5 4.33-14.5-5.5.58-11.5.58-11.5 7.58 4.67 12.92 2.92 22.08-3.33 23.67 2.92-4.89 16.67-7.69 15.5-2.72 5.5-2.72 5.5h-2.33s1.92-6.08-.75-7.83-7.93-3.26-9.18-2.01z"/><path d="M452.47 143.55s-6.59 15.5.29 18.5l-.88 2.13s-6.81-8.75-6.18-16.25 6.77-4.38 6.77-4.38z"/><circle class="cls-16" cx="442.69" cy="155.07" r="5.92"/><path class="cls-17" d="M442.69 155.04l1.79-24.81"/><path class="cls-2" d="M76.27 260.12c-2.13-9.15-15.08-58-15.08-58s-4.51-18.81-5.4-23.24-1.63-8.89-2.12-13.39a78.83 78.83 0 0 1-.4-13.78.41.41 0 0 0-.38-.44c-.16 0-6-1.27-6.84 5.7-.78 4 0 11.17 0 11.17 2.45 15 12.62 36 16.42 58.16 0 0 2.87 16.73 11.58 31.92.35.61 1.45 2.53 2 2.35a.5.5 0 0 0 .22-.45z"/><path class="cls-3" d="M100.7 267.6v51.5m-21.31 11.75v-4.44a7.31 7.31 0 0 1 7.31-7.31h28a7.31 7.31 0 0 1 7.31 7.31v4.44M100.7 319.1v11.75"/><circle class="cls-4" cx="122.18" cy="330.85" r="3.24"/><circle class="cls-4" cx="79.65" cy="331.15" r="3.24"/><circle class="cls-4" cx="100.91" cy="330.96" r="3.24"/><rect class="cls-2" x="75.89" y="261.23" width="49.61" height="7.13" rx="3.56" ry="3.56" transform="rotate(-180 100.695 264.79)"/><path class="cls-10" d="M138 220.22c5 .3 9.19.41 14.37.55 4.31.12 9.61.5 14.16.65h.28l2.86.13h1.47a6 6 0 0 1 .87.16 3.75 3.75 0 0 1 2.45 2.77c.63 1.73 3.52 3.27 5.27 3.89.85.3 1.22.43 2 .65 1.07-.32 1.91-.77.83-1.87-.2-.2-1-.51-1.32-.77-2.29-1.68-1-3.28 1-4.57a7 7 0 0 1 1.09-.29c1.44.71 9 5.55 9.93 5.66a1.35 1.35 0 0 0-.13-1.38c-2.75-4.28-7.31-6.81-10.5-10.82-14.38.37-27.74-2.61-41.53-6.39-1.94 3.73-2.41 7.57-3.1 11.63z"/><path class="cls-9" d="M98 197.14c1.32 3.41 2.51 6.17 3.68 8.74a22.21 22.21 0 0 0 17.55 12.86c7.07.85 14.17 2 21.27 2.5a37.32 37.32 0 0 1 2-13c-6.39-2-11.36-2.12-17.86-5.14-1.73-.8-3.83-2-4.82-7.14s-1.62-21.29-14.68-19.41c-14.58 3.9-10.32 12.36-7.14 20.59z"/><path class="cls-10" d="M136.62 156.27s-3 10.62-15.59 9.27h-2.7s1.65 13.7 3.93 16c0 0 19.66-1.12 25.16-12.34 0-.03-1.35-13.99-10.8-12.93z"/><path class="cls-13" d="M122.36 166.52c.41 3.32 1.86 12.9 5.12 16.16 0 0-19.72 19.44-13.48 54.49 0 0-14 4.21-28.38 2.84a8 8 0 0 0-7.34 5s-14.69-30.69-5.58-54.81c0 0 6.73-17.67 19.54-21.62 14.28-4.4 22.62-3.37 28.83-3.23a1.32 1.32 0 0 1 1.29 1.17z"/><path class="cls-5" d="M122.56 208.54c13.83 3.74 27 6.94 41.42 6 3.07 3.78 6.19 7.42 9.55 10.95a1.27 1.27 0 0 1-1.55 2h-.06c-2.1-1.26-5.24-4.36-7.21-6.35a4 4 0 0 0-1 .25c.26 2.21-.47 4.25-.2 6.46h-7.31a25.22 25.22 0 0 1-2.62-6.56c-6.36-.12-13.74-.66-19.85-.72-5.29-.06-9.18-.13-14.2-.39.62-4.09.84-8.1 3.03-11.64z"/><path class="cls-9" d="M79.32 196.6c1.32 3.41 2.51 6.17 3.68 8.74a22.21 22.21 0 0 0 17.55 12.86c7.07.85 14.17 2 21.27 2.5a37.32 37.32 0 0 1 2-13c-6.39-2-11.36-2.12-17.86-5.14-1.73-.8-3.83-2-4.82-7.14S99.49 174.1 86.42 176c-14.56 3.91-10.29 12.38-7.1 20.6z"/><path class="cls-13" d="M146.57 229.44h56.86c1 0 1.86-.48 1.86-1.07 0-.59-.84-1.07-1.86-1.07h-56.86c-1 0-1.86.48-1.86 1.07.01.63.84 1.07 1.86 1.07zm59.65-3.62l25.69-50.73c.46-.91.41-1.87-.12-2.14s-1.33.26-1.79 1.17l-25.69 50.73c-.46.91-.41 1.87.12 2.14.57.27 1.33-.26 1.79-1.17z"/><path class="cls-5" d="M218.21 322.83l9.91 7.34 8.4 1.52.93 2.68H199.9l-5.13-13.41h20.06l3.38 1.87zm-54.9-25.26l-.92 15.16s1 14.65 6.18 18.09l-3.57 1.52s-13-21.89-18-23.76l.4-3s7.8-9.45 4.6-13.58z"/><path class="cls-18" d="M166 299.5l-19.81-1.33 2.45-33.38s24.2 4.7 17.36 34.71z"/><path class="cls-19" d="M121.51 264.4l30.73 4.19s35 44.44 35.89 52.31v2.8l30.09-.87-22.74-28.16-7.17-15.57-15.45-21.81-4.14-4.17-13.29-.7-17.49 2.36-14.61 6.56-5.12-.47-4.77 1.63z"/><path class="cls-18" d="M76.38 240.67l7.76 18.8a5.15 5.15 0 0 0 4.64 3.18l31.35.71s30.79-9.69 44.32-9.69c0 0 6.76 2 8.4 3.62l2.57-17.49s-12.13-4.76-23.09-5.93-34.52 1-34.52 1l-8.63-.93z"/><path class="cls-5" d="M136.86 151.61a12.2 12.2 0 1 1 20.26 12.48l1.55 5.77-.35 1a11.07 11.07 0 0 1-3.9-1.1l-3.73 10.85-9.57-7.17-2-10a12.18 12.18 0 0 1-2.26-11.83z"/><path d="M132.87 161.49l2.75 3.66 6.85-3.15 1.9-7.1H148v6l1.83-.5.5-6s21.25-3.42 22-5.92l-17.25-11.67s-17.75-2.08-17.75 3.5-2.33 17.1-2.33 17.1zm21.81 9.16l-4.19-1.57-4.37 6-1.25 2.28 5.31 4.15 2.19-1.3.06-2.53-3.47-2.38 1.94-4.09 3.37.25.41-.81z"/><path class="cls-20" d="M285 228.62h-38.15a4.18 4.18 0 0 1-4.17-4.17 4.18 4.18 0 0 1 4.17-4.17H285"/><path class="cls-21" d="M243.72 218.57h38.11a4.18 4.18 0 0 0 4.17-4.17 4.18 4.18 0 0 0-4.17-4.17h-38.11"/><path d="M258.16 196.41h10.23a.57.57 0 0 1 .57.57v12.23h-11.37V197a.57.57 0 0 1 .57-.59z"/><path class="cls-5" d="M261.46 194.24a5.32 5.32 0 0 1-2.65-2.59 3.89 3.89 0 0 1-.35-2.06 4 4 0 0 1 .27-1.06c.12-.31.24-.55.37-.82.5-1.06 1.05-2.07 1.58-3.06a14.08 14.08 0 0 0 .7-1.51 2 2 0 0 0 .09-1.59 1.94 1.94 0 0 1 .74 1.72 7.21 7.21 0 0 1-.28 1.85 18.9 18.9 0 0 1-1.28 3.32l-.37.77a2.84 2.84 0 0 0-.21.62 3.45 3.45 0 0 0 0 1.38 10 10 0 0 0 1.39 3.03zm3.4 0a3.62 3.62 0 0 0 1.27-1.88 3.17 3.17 0 0 0-.62-1.83 15.18 15.18 0 0 1-1.08-2.39 3.61 3.61 0 0 1-.18-1.48 2.27 2.27 0 0 1 .61-1.31 3.73 3.73 0 0 0 .79 2.22 18 18 0 0 1 1.39 2.16 6.41 6.41 0 0 1 .54 1.36 2.58 2.58 0 0 1-.2 1.72 2.69 2.69 0 0 1-2.52 1.43z"/><path class="cls-22" d="M299.82 212.14s1.54-14.42-4.08-21.77"/><circle class="cls-5" cx="295.45" cy="189.72" r="1.57"/><ellipse class="cls-4" cx="295.45" cy="185.15" rx="1" ry="2.71"/><ellipse class="cls-2" cx="292.22" cy="186.49" rx="1" ry="2.71" transform="rotate(-45 292.217 186.49)"/><ellipse class="cls-4" cx="290.89" cy="189.72" rx="2.71" ry="1"/><ellipse class="cls-2" cx="292.22" cy="192.94" rx="2.71" ry="1" transform="rotate(-45 292.218 192.94)"/><ellipse class="cls-4" cx="295.45" cy="194.28" rx="1" ry="2.71"/><ellipse class="cls-2" cx="298.68" cy="192.94" rx="1" ry="2.71" transform="rotate(-45 298.68 192.943)"/><ellipse class="cls-4" cx="300.01" cy="189.72" rx="2.71" ry="1"/><ellipse class="cls-2" cx="298.68" cy="186.49" rx="2.71" ry="1" transform="rotate(-45 298.678 186.493)"/><path class="cls-23" d="M307 216.43c0 5.82-1.78 10.83-4.31 13H297c-2.53-2.19-4.31-7.19-4.31-13 0-4.82 1.22-9.08 3.07-11.64h8.19c1.82 2.56 3.05 6.82 3.05 11.64z"/><g class="cls-24"><circle class="cls-25" cx="284.82" cy="57.54" r="56.17"/></g><path class="cls-26" d="M284.82 119.18v37.37"/><path class="cls-13" d="M250.61 45.72v-2.44l12.19-5.18v2.7l-9.45 3.7 9.45 3.7v2.69zm12.68 7.66l4.92-17.18H271l-5 17.18zm8.34-2.49V48.2l9.45-3.7-9.45-3.7v-2.69l12.19 5.18v2.43zm-14.44 28.88a8.52 8.52 0 0 1-2.26-.25 2.9 2.9 0 0 1-1.35-.75 2.53 2.53 0 0 1-.63-1.28 9.33 9.33 0 0 1-.16-1.81v-3.13a3.59 3.59 0 0 0-.45-2.1 2 2 0 0 0-1.67-.6v-2.22a2 2 0 0 0 1.67-.61 3.65 3.65 0 0 0 .45-2.11v-3.08a9.33 9.33 0 0 1 .16-1.81 2.54 2.54 0 0 1 .63-1.28 2.9 2.9 0 0 1 1.35-.75 8.54 8.54 0 0 1 2.26-.25h1v2.12h-.57a2.37 2.37 0 0 0-1.54.36 1.65 1.65 0 0 0-.4 1.27q0 1.16.08 2.3t.08 2.3a2.14 2.14 0 0 1-.23 1 2.87 2.87 0 0 1-1.49 1.36 4.37 4.37 0 0 1-1 .28 4.37 4.37 0 0 1 1 .28 2.87 2.87 0 0 1 1.49 1.36 2.15 2.15 0 0 1 .23 1q0 1.16-.08 2.32t-.13 2.31a1.65 1.65 0 0 0 .4 1.27 2.37 2.37 0 0 0 1.54.36h.57v2.12zm1.6-12.17v-3.46h3.57v3.46zm0 11.52a2.68 2.68 0 0 0 1.48-.88 3.08 3.08 0 0 0 .52-1.86h-2v-3.5h3.57v2.64a9.07 9.07 0 0 1-.18 1.92 3.83 3.83 0 0 1-.6 1.41 3.35 3.35 0 0 1-1.1 1 5.83 5.83 0 0 1-1.69.6zm3.99.65v-2.12h.57a2.37 2.37 0 0 0 1.54-.36 1.65 1.65 0 0 0 .4-1.27q0-1.16-.08-2.32t-.08-2.32a2.15 2.15 0 0 1 .23-1 2.87 2.87 0 0 1 1.49-1.38 4.37 4.37 0 0 1 1-.28 4.37 4.37 0 0 1-1-.28 2.87 2.87 0 0 1-1.49-1.36 2.14 2.14 0 0 1-.23-1q0-1.16.08-2.3t.08-2.3a1.65 1.65 0 0 0-.4-1.27 2.37 2.37 0 0 0-1.54-.36h-.57v-2.1h1A8.55 8.55 0 0 1 266 58a2.91 2.91 0 0 1 1.35.75A2.54 2.54 0 0 1 268 60a9.33 9.33 0 0 1 .16 1.81v3.08a3.65 3.65 0 0 0 .45 2.11 2 2 0 0 0 1.67.61v2.23a2 2 0 0 0-1.67.6 3.59 3.59 0 0 0-.45 2.1v3.13a9.33 9.33 0 0 1-.16 1.81 2.54 2.54 0 0 1-.63 1.28 2.9 2.9 0 0 1-1.35.75 8.52 8.52 0 0 1-2.26.25zm8.74-3.39v-3.5h3.6v3.49zm4.76 0v-3.5h3.6v3.49zm10.92-8.78v-3.46h3.57v3.46zm0 8.77v-3.49h3.57v3.49z"/><path class="cls-27" d="M289.79 36.62h9.48"/><path class="cls-28" d="M303.95 36.62h7.07m4.06 0h7.07m-32.36 5.34h9.48"/><path class="cls-29" d="M303.95 41.96h7.07"/><path class="cls-28" d="M315.08 41.96h7.07m-32.36 5.34h9.48"/><path class="cls-29" d="M303.95 47.3h11.13"/><path class="cls-28" d="M289.79 52.48h9.48m4.68 0h7.07"/><path class="cls-30" d="M318.31 68.32a3.87 3.87 0 0 1 2.11-3.46 11.44 11.44 0 0 0-1-2.33 3.89 3.89 0 0 1-4.9-4.9 11.28 11.28 0 0 0-2.31-1 3.87 3.87 0 0 1-3.46 2.15 3.92 3.92 0 0 1-3.48-2.15 11.28 11.28 0 0 0-2.31 1 3.89 3.89 0 0 1-4.9 4.9 11.44 11.44 0 0 0-1 2.33 3.89 3.89 0 0 1 0 6.94 11.13 11.13 0 0 0 1 2.3A3.89 3.89 0 0 1 303 79a11.28 11.28 0 0 0 2.31 1 3.92 3.92 0 0 1 3.48-2.11 3.87 3.87 0 0 1 3.45 2.11 11.28 11.28 0 0 0 2.31-1 3.89 3.89 0 0 1 4.9-4.9 11.13 11.13 0 0 0 1-2.3 3.9 3.9 0 0 1-2.14-3.48zm-9.53 5a5 5 0 1 1 5-5 5 5 0 0 1-5 4.98z"/><path class="cls-31" d="M556.5 336.37c-46.38 4.6-92.75 7-139.13 8.62l-17.39.65-17.39.41-34.78.78c-11.59.24-23.19.29-34.78.45l-34.78.13q-69.56 0-139.13-2.46c-46.38-1.63-92.75-4-139.13-8.59v-1.3l69.56-.32 69.56-.11 139.13-.22 139.13.22 69.56.11 69.56.32z"/></g></g></svg>