<svg xmlns="http://www.w3.org/2000/svg" viewBox="0 0 396.5 353.33"><defs><style>.cls-1{fill:#3e4651}.cls-2{fill:#b8cbd6}.cls-2,.cls-21,.cls-3{stroke:#0c0c0c}.cls-15,.cls-17,.cls-19,.cls-2,.cls-20,.cls-21,.cls-3,.cls-5{stroke-miterlimit:10}.cls-2,.cls-3{stroke-width:1.83px}.cls-15,.cls-17,.cls-19,.cls-20,.cls-21,.cls-3,.cls-5{fill:none}.cls-4{fill:#ffab78}.cls-15,.cls-5{stroke:#c7c7c7;stroke-width:3px}.cls-6{fill:#d0021b}.cls-7{fill:#d4d4d4}.cls-8{fill:#c7c7c7}.cls-9{fill:#738ba3}.cls-10{fill:#849fbb}.cls-11{fill:#969696}.cls-12{fill:#adadad}.cls-13{fill:#4589b0}.cls-14{fill:#1d628b}.cls-15{stroke-linecap:square}.cls-16{fill:#73b1d6}.cls-17{stroke:#ffab78;stroke-width:4px}.cls-17,.cls-19,.cls-20,.cls-21{stroke-linecap:round}.cls-18,.cls-20{opacity:.29}.cls-19,.cls-20{stroke:#000}.cls-19{stroke-width:3.15px;stroke-dasharray:0 10.38}.cls-20{stroke-width:2.75px;stroke-dasharray:0 12}.cls-21{stroke-width:2.2px;stroke-dasharray:0 3.61}</style></defs><title>Asset 1sparrow</title><g id="Layer_2" data-name="Layer 2"><g id="Layer_1-2" data-name="Layer 1"><circle class="cls-1" cx="191.65" cy="31.64" r="5.04"/><circle class="cls-1" cx="209.05" cy="70.33" r="5.04"/><circle class="cls-2" cx="194.97" cy="86.82" r="5.04"/><circle class="cls-2" cx="221.64" cy="86.82" r="5.04"/><rect class="cls-2" x="183.86" y="49.16" width="17.86" height="8.58" rx="4.29" ry="4.29"/><rect class="cls-2" x="217.75" y="49.16" width="17.86" height="8.58" rx="4.29" ry="4.29"/><path class="cls-3" d="M214.08 70.33h7.56v11.45m-26.68 0V70.33h9.05m-12.36-21.17V36.68m10.07 16.77h16.03m-8.7 11.85V53.45m32.61 0h-6.06m-34.73-21.81h-4.19"/><path class="cls-2" transform="rotate(-45 245.007 53.445)" d="M241.34 49.79h7.33v7.33h-7.33z"/><path class="cls-2" transform="rotate(-45 205.136 31.64)" d="M201.47 27.98h7.33v7.33h-7.33z"/><path class="cls-4" d="M74.12 266.79c-2.13-9.15-15.08-58-15.08-58s-4.51-18.81-5.4-23.24-1.63-8.89-2.12-13.39a78.83 78.83 0 0 1-.4-13.78.41.41 0 0 0-.38-.44c-.16 0-6-1.27-6.84 5.7-.78 4 0 11.17 0 11.17 2.45 15 12.62 36 16.42 58.16 0 0 2.87 16.73 11.58 31.92.35.61 1.45 2.53 2 2.35a.5.5 0 0 0 .22-.45z"/><path class="cls-5" d="M98.55 274.27v51.5m-21.31 11.75v-4.44a7.31 7.31 0 0 1 7.31-7.31h28.26a7 7 0 0 1 7 7v4.71m-21.26-11.71v11.75"/><circle class="cls-6" cx="120.03" cy="337.52" r="3.24"/><circle class="cls-6" cx="77.5" cy="337.52" r="3.24"/><circle class="cls-6" cx="98.76" cy="337.52" r="3.24"/><rect class="cls-4" x="73.74" y="267.9" width="49.61" height="7.13" rx="3.56" ry="3.56" transform="rotate(-180 98.545 271.46)"/><path class="cls-7" d="M251.18 199.9l-7.71-3.33s-3 1-4 0c0 0-1 3 2 3h2l1 1-1 1s-12 1-17 3-1.77 3.41-.71 3.41 9.08-.07 11.83 2.06 9.86-1.38 11.77-.59c0-.01 4.64-6.9 1.82-9.55z"/><path class="cls-8" d="M170 223.57L145.13 218l2.5-8.17s24.36 7.53 27.1 7.53l-2.1 4.39zm114.74-65.67s4 15 16 12h1s1 9-2 11-17-4-20-9 2-14 5-14z"/><path class="cls-9" d="M298.57 182.76s-6.33 18.64-21.33 24.64c0 0-11.7.92-25.7-7.08 0 0-1.3 8.08-2.3 9.08l20 7s14 4 22-2a175.61 175.61 0 0 0 16-14s-1.34-17.28-8.67-17.64z"/><path class="cls-10" d="M345.24 244.4s25.63-70-38.61-79.8a2.2 2.2 0 0 0-2.19 1c-3.13 5-13.48 24.24 3.81 39.8a38.85 38.85 0 0 1 7 37s19.99 9 29.99 2z"/><path class="cls-7" d="M278.51 227.21L266 229.46s-7.12 6.83-9.25 6.63c0 0-2.4 1.63 3.38 1s8.11-3.2 8.11-3.2 3.25.59 4.94.75c0 0 1.63 1.56 2.69 1.56s2.61-1 2.61-1.66l3-1.19s-.24-6.14-2.97-6.14zm-14.77-77.31s.64 5.51 1 11.75l-3 4.72v1.72l3.3 1c.05 4.73-.25 8.78-1.33 9.85 0 0 0 4 5 2s13-8 13-10l5-18s-12.97-17.04-22.97-3.04z"/><path class="cls-11" d="M279.82 158.57l-.71-.67-12.5.64a2.28 2.28 0 0 0-2.21-1.08c-1.12.29-1.48 1.13-1.59 2.22-.08.81 2.68.27 3.61-.44a3.84 3.84 0 0 1 .37 1.94z"/><ellipse class="cls-12" cx="264.7" cy="160.97" rx="2.09" ry="3.08"/><path class="cls-7" d="M238.43 329.84a21.3 21.3 0 0 1-15.5 8.88s-1.5 1.31 0 1.69 24.75 0 24.75 0l.75-10.56s-8.43-.85-10-.01zm35-5.59c.69 9.81-11.31 14.41-11.31 14.41s-4.95 1.32 1.62 1.91 18.79-5.12 24.17-12.53c-1.54-3.5-4-7-6-10.42-3.29 1.8-6.46 3.31-8.48 6.63z"/><path class="cls-1" d="M261.49 285.4s10.75 36.25 8.63 40.38l15.25-5.46s-12-47.66-17.25-50z"/><path class="cls-13" d="M151.53 210.54c-.74 3.2-3.51 6.83-4.68 8.25l-.4-.07c-6.52-1.08-13.23-2.54-18-6.76a123.3 123.3 0 0 0-15.3-12c.11-6.73.09-14.67 6.69-18.17 5 10.35 15.34 19.12 24.13 26.14 1.34.44 2.68.9 4 1.36z"/><path class="cls-7" d="M184.09 329.9a21.3 21.3 0 0 0 15.5 8.88s1.5 1.31 0 1.69-24.75 0-24.75 0l-.75-10.56s8.47-.86 10-.01zm-48.04-7.47c-.07 6.68 1.35 13.22 7.57 16.52 1 .38 3 1.76-1.4 1.38-4.09-.35-13.88-8.41-18.67-12.9a1.8 1.8 0 0 1-.35-2.2c1.48-2.6 3.2-5.19 4.68-7.82 2.81 1.68 6.12 2.46 8.17 5.02z"/><path class="cls-1" d="M161.24 282.15c-7.25 11.42-18.81 30.29-21 43.54q-6.8-4.31-13.64-8.55c7.11-14.95 14.53-34.29 26.93-45.53 4.63-2.29 10.66 5.89 7.71 10.54z"/><path class="cls-8" d="M174.73 217.34l13.57 4.39 2.17 16a1.22 1.22 0 0 1-2 0c-1.17-1.17-2.09-7.33-2.09-7.33l-9.08.83s-6.08-7.67-7.25-7.67 1.95-5.98 4.68-6.22zm-25.3 10.46l3.31 2.6s1.92-.77 2.91.22.72 1.28.72 1.28l-9.15-1.12s.78-2.98 2.21-2.98z"/><path class="cls-7" d="M141.66 223.73a22.93 22.93 0 0 0 11.18-4.38 28.7 28.7 0 0 0 11-2.22c1.92.44-.6 2-1.94 3s-5.56 4.63-8.22 4.26a21.45 21.45 0 0 1-4.29 3.93c-.49 1-1.07 2.24-2.09 2.72a2.93 2.93 0 0 1-3.31-.44c-1.13-.05-2.26-.06-3.39-.16-.6-2.29-1.12-5.15 1.06-6.71z"/><path class="cls-14" d="M75.42 239.21c-3.67-15.32-12.17-62.67 29.14-70.76 10.14-2 14.59 1.63 15.06 8.53.74 10.93.23 17.51-5.56 25.11-.27.36-12.94 17.85-10.46 32.44.25 1.47.43 2.75.54 3.87 1.07 10.63-3.77 6.27-8.19 7.4a35.36 35.36 0 0 1-11.72 1.2c-4.23-.37-5.94 4.21-8.81-7.79z"/><path class="cls-7" d="M141.66 223.73s-25.18-2.32-27.86-4.64l-2.06 8.71a90 90 0 0 0 28.86 2.74l2.08-1.39V226z"/><path class="cls-13" d="M113.38 230c-23.72-3.52-47.87-32.42-29.31-51.39 3.4-3.47 12.79-2.15 15.07 5.72 1.13 3.9.6 7.57-1.61 12.7-1.87 4.33 1.59 13.88 9.46 17.71a81.07 81.07 0 0 0 9.49 4.1c.14.16-.75 9.91-3.1 11.16z"/><path d="M77.51 244.92s.4 13.67 8.9 22.17c0 0 52.75 5.63 66.25 3.5 0 0 7.38 13.29 9.27 37.13.83 10.48 1.45 21.92 1.45 21.92s20.72 4.64 26.28-.92c0 0-11-21.62-13.87-41.25a149.55 149.55 0 0 0-9-33.87s-8.85-5-25.72-5.37c-10-.67-21.59-4.13-21.59-4.13s-16.79-5-41.97.82z"/><path class="cls-14" d="M104.18 238.84l.32 2.94a1.57 1.57 0 0 1-1.42 1.74c-2.87.24-8.77.92-10.78 2.51-.36.28-3.6 3.56-5.32 5.27a6.54 6.54 0 0 1-2.46 1.53l-1.67.58c-1.67.58-2.29 2-2.72 3.68a4.81 4.81 0 0 1-2.84-3.44A235.85 235.85 0 0 1 73.68 230z"/><path class="cls-4" d="M345.86 266.79c2.13-9.15 15.08-58 15.08-58s4.51-18.81 5.4-23.24 1.63-8.89 2.12-13.39a78.83 78.83 0 0 0 .4-13.78.41.41 0 0 1 .38-.44c.16 0 6-1.27 6.84 5.7.78 4 0 11.17 0 11.17-2.45 15-12.62 36-16.42 58.16 0 0-2.87 16.73-11.58 31.92-.35.61-1.45 2.53-2 2.35a.5.5 0 0 1-.22-.45z"/><path class="cls-5" d="M321.43 274.27v51.5m21.31 11.75v-4.44a7.31 7.31 0 0 0-7.31-7.31h-28a7.31 7.31 0 0 0-7.31 7.31v4.44m21.31-11.75v11.75"/><circle class="cls-6" cx="299.95" cy="337.52" r="3.24"/><circle class="cls-6" cx="342.48" cy="337.52" r="3.24"/><circle class="cls-6" cx="321.22" cy="337.52" r="3.24"/><rect class="cls-4" x="296.62" y="267.9" width="49.61" height="7.13" rx="3.56" ry="3.56"/><path d="M344.55 244.84s.06 13.68-8.44 22.18c0 0-52.75 5.63-66.25 3.5 0 0-7.37 13.29-9.27 37.13-.83 10.48-1.45 21.92-1.45 21.92s-20.72 4.64-26.28-.92c0 0 11-21.62 13.88-41.25a149.55 149.55 0 0 1 9-33.87s8.85-5 25.72-5.37c10-.67 21.59-4.12 21.59-4.12s16.31-5.04 41.5.8z"/><path class="cls-5" d="M188.57 239.25l20.74 13.82"/><path class="cls-15" d="M230.04 239.25l-20.73 13.81v86.84"/><path class="cls-9" d="M335.19 177c15 11 15 34-15 47a141.45 141.45 0 0 1-40 10l-2.62-6.62S305 218.1 313.22 214c4.25-2.12 11-5.87 12.34-11.4.8-3.4.63-5.57-1.37-8.57-.5-.75-3.64-5.46-2-11 .86-2.9 3.37-7.19 7.36-7.7.93-.15 2.9-.33 5.64 1.67z"/><path class="cls-8" d="M136.31 159.7c-5.34 5.05-9.24 9.44-18.15 10-.28 0-1.54-.09-2.25-.08-.23 0-.32.2-.36.42-.51 3-.6 8.26 3.51 9.92 3.78 1.54 12.94-4.1 16.26-6.87s4.5-10.28.99-13.39z"/><path class="cls-7" d="M153.74 163.89q-1.51 2.42-3.11 4.81c.15 1.46.3 2.92.49 4.38a1.81 1.81 0 0 1-1.94 1l-1.51-.27c-.9 2.92-2.68 1.44-2.86 2.9a5 5 0 0 1-.53 1.8c-1 1.92-1.74 3.48-3.42 2.6-6-3.15-6.82-8-6.87-11.82.06-5.24 1.43-10.12 2.52-15.15 7.58-3.33 13.23-3.58 17.07 2.1a7 7 0 0 1 .16 7.65z"/><path d="M135 164.61l10-7.14s9.67 8.26 17.92 0c1.19-1.19 4.56-9.65 4.56-9.65L145 143s-7-1.9-7 2.77-6.58 18.31-8.62 18.31l3.61 4.28z"/><path class="cls-16" d="M396.5 342.28c-33 4.63-66.08 6.94-99.13 8.69s-66.08 2.38-99.13 2.36-66.08-.77-99.13-2.39S33 346.88 0 342.28V341l49.56-.32 49.56-.11 99.13-.22 99.13.22 49.56.11 49.56.32z"/><path class="cls-17" d="M118.49 239.25h181.63"/><path d="M265.24 152.4s-5-3-3-13 8-6 8-6 19-1 20 11c0 0 7 7-3 13 0 0-5-1-6 2l-2 2h-1v-6a20.57 20.57 0 0 1-13-3z"/><g class="cls-18"><circle class="cls-19" cx="209.05" cy="57.74" r="56.17"/></g><path class="cls-20" d="M209.05 114.58v87.37"/><path class="cls-21" d="M214.95 31.64h9.48m4.68 0h11.13m-25.29-5.03h9.48m4.68 0h11.13m-25.29 10.21h9.48m-9.48 4.8h9.48m4.68-4.8h7.07"/></g></g></svg>